<?xml version="1.0" encoding="UTF-8" standalone="no"?>
<!-- Created with Sodipodi ("http://www.sodipodi.com/") -->
<svg id="svg378" xmlns:rdf="http://www.w3.org/1999/02/22-rdf-syntax-ns#" xmlns="http://www.w3.org/2000/svg" viewBox="0 0 512 512" version="1" y="0" x="0" xmlns:cc="http://creativecommons.org/ns#" xmlns:dc="http://purl.org/dc/elements/1.1/">
 <metadata id="metadata4863">
  <rdf:RDF>
   <cc:Work rdf:about="">
    <dc:format>image/svg+xml</dc:format>
    <dc:type rdf:resource="http://purl.org/dc/dcmitype/StillImage"/>
   </cc:Work>
  </rdf:RDF>
 </metadata>
 <defs id="defs380">
  <clipPath id="clipPath4933" clipPathUnits="userSpaceOnUse">
   <rect id="rect4935" fill-opacity=".67" height="745.12" width="745.12" y="-.3472" x="151.69"/>
  </clipPath>
 </defs>
 <g id="flag" clip-path="url(#clipPath4933)" transform="matrix(.68714 0 0 .68714 -104.23 .23857)" fill-rule="evenodd">
  <rect id="rect628" transform="translate(-1149.6 -145.85)" height="744.09" width="1073.5" y="145.85" x="1144.3" fill="#ffe900"/>
  <path id="path623" transform="translate(-3.1757 3.5705)" fill="#35a100" d="m-2.6622-3.5704 1.246 536.41 835.33-536.76-836.57 0.3496z"/>
  <path id="path624" fill="#c70000" d="m1069.5 744.09-1.9-557.75-842.62 558.17 844.52-0.42z"/>
  <path id="path625" transform="translate(-3.1757 3.5705)" d="m-2.1244 573.28 0.70812 167.92 182.28-0.24 890.3-596.88-1-146l-180.14-1.6504-892.18 576.85z"/>
  <polygon id="polygon136" points="591.04 433.16 533.77 391.48 476.5 433.15 498.45 365.81 441.12 324.21 511.95 324.28 533.78 256.9 555.61 324.28 626.44 324.23 569.1 365.81" fill="#fff" transform="matrix(.78140 -.50566 .46724 .74860 153.82 243.69)"/>
  <polygon id="polygon638" points="591.04 433.16 533.77 391.48 476.5 433.15 498.45 365.81 441.12 324.21 511.95 324.28 533.78 256.9 555.61 324.28 626.44 324.23 569.1 365.81" fill="#fff" transform="matrix(.78140 -.50566 .46724 .74860 -246.76 504.07)"/>
 </g>
</svg>
