<?xml version="1.0" encoding="UTF-8" standalone="no"?>
<!-- Created with Sodipodi ("http://www.sodipodi.com/") -->
<svg id="svg548" xmlns:rdf="http://www.w3.org/1999/02/22-rdf-syntax-ns#" xmlns="http://www.w3.org/2000/svg" viewBox="0 0 512 512" version="1" y="0" x="0" xmlns:cc="http://creativecommons.org/ns#" xmlns:xlink="http://www.w3.org/1999/xlink" xmlns:dc="http://purl.org/dc/elements/1.1/">
 <metadata id="metadata4089">
  <rdf:RDF>
   <cc:Work rdf:about="">
    <dc:format>image/svg+xml</dc:format>
    <dc:type rdf:resource="http://purl.org/dc/dcmitype/StillImage"/>
   </cc:Work>
  </rdf:RDF>
 </metadata>
 <defs id="defs550">
  <linearGradient id="linearGradient11677" x1="359.59" gradientUnits="userSpaceOnUse" x2="4203.4" gradientTransform="matrix(.080015 0 0 .13320 -143.77 670.73)" y1="-5035.4" y2="-5035.4">
   <stop id="stop562" offset="0"/>
   <stop id="stop563" stop-color="#fff" offset="1"/>
  </linearGradient>
  <clipPath id="clipPath12804" clipPathUnits="userSpaceOnUse">
   <rect id="rect12806" fill-opacity=".67" height="512" width="512" y="0" x="0"/>
  </clipPath>
 </defs>
 <g id="flag" clip-path="url(#clipPath12804)">
  <rect id="rect555" height="511.87" width="307.43" stroke="url(#linearGradient11677)" y=".064535" x="-114.94" stroke-width=".10324pt" fill="#090"/>
  <rect id="rect557" fill-rule="evenodd" height="512" width="461.15" y="-.0000025034" x="191.82" stroke-width="1pt" fill="#f00"/>
  <g id="g1527" stroke-width="1pt" transform="matrix(.10329 0 0 .10306 23.562 74.592)" fill-rule="evenodd">
   <g id="g1009" transform="matrix(-.053403 1.0792 .43966 -.043588 1384.9 -475.58)">
    <rect id="rect1010" y="376.91" width="171.54" x="1528.3" height="2824.2"/>
    <rect id="rect1011" height="2768.8" width="131.37" y="404.6" x="1548.3" fill="#efef00"/>
    <g id="g1012" transform="translate(9.3838 -.000030518)">
     <rect id="rect1013" y="357.96" width="56.303" x="1482.6" height="2852.7"/>
     <rect id="rect1014" height="2802" width="15.952" y="383.29" x="1502.8" fill="#efef00"/>
    </g>
    <g id="g1015" transform="translate(197.06 -.000030518)">
     <rect id="rect1016" y="357.96" width="56.303" x="1482.6" height="2852.7"/>
     <rect id="rect1017" height="2802" width="15.952" y="383.29" x="1502.8" fill="#efef00"/>
    </g>
   </g>
   <g id="g1000" transform="matrix(-.053403 1.0792 .43966 -.043588 1572.6 115.61)">
    <rect id="rect1001" y="376.91" width="171.54" x="1528.3" height="2824.2"/>
    <rect id="rect1002" height="2768.8" width="131.37" y="404.6" x="1548.3" fill="#efef00"/>
    <g id="g1003" transform="translate(9.3838 -.000030518)">
     <rect id="rect1004" y="357.96" width="56.303" x="1482.6" height="2852.7"/>
     <rect id="rect1005" height="2802" width="15.952" y="383.29" x="1502.8" fill="#efef00"/>
    </g>
    <g id="g1006" transform="translate(197.06 -.000030518)">
     <rect id="rect1007" y="357.96" width="56.303" x="1482.6" height="2852.7"/>
     <rect id="rect1008" height="2802" width="15.952" y="383.29" x="1502.8" fill="#efef00"/>
    </g>
   </g>
   <g id="g991" transform="matrix(-.053403 1.0792 .43966 -.043588 1497.5 781.86)">
    <rect id="rect992" y="376.91" width="171.54" x="1528.3" height="2824.2"/>
    <rect id="rect993" height="2768.8" width="131.37" y="404.6" x="1548.3" fill="#efef00"/>
    <g id="g994" transform="translate(9.3838 -.000030518)">
     <rect id="rect995" y="357.96" width="56.303" x="1482.6" height="2852.7"/>
     <rect id="rect996" height="2802" width="15.952" y="383.29" x="1502.8" fill="#efef00"/>
    </g>
    <g id="g997" transform="translate(197.06 -.000030518)">
     <rect id="rect998" y="357.96" width="56.303" x="1482.6" height="2852.7"/>
     <rect id="rect999" height="2802" width="15.952" y="383.29" x="1502.8" fill="#efef00"/>
    </g>
   </g>
   <g id="g982" transform="matrix(.053403 1.0792 -.43966 -.043588 1815 734.94)">
    <rect id="rect983" y="376.91" width="171.54" x="1528.3" height="2824.2"/>
    <rect id="rect984" height="2768.8" width="131.37" y="404.6" x="1548.3" fill="#efef00"/>
    <g id="g985" transform="translate(9.3838 -.000030518)">
     <rect id="rect986" y="357.96" width="56.303" x="1482.6" height="2852.7"/>
     <rect id="rect987" height="2802" width="15.952" y="383.29" x="1502.8" fill="#efef00"/>
    </g>
    <g id="g988" transform="translate(197.06 -.000030518)">
     <rect id="rect989" y="357.96" width="56.303" x="1482.6" height="2852.7"/>
     <rect id="rect990" height="2802" width="15.952" y="383.29" x="1502.8" fill="#efef00"/>
    </g>
   </g>
   <g id="g937" transform="matrix(-.31852 .97312 -.46881 -.050001 2307.7 363.88)">
    <rect id="rect938" y="376.91" width="171.54" x="1528.3" height="2824.2"/>
    <rect id="rect939" height="2768.8" width="131.37" y="404.6" x="1548.3" fill="#efef00"/>
    <g id="g940" transform="translate(9.3838 -.000030518)">
     <rect id="rect941" y="357.96" width="56.303" x="1482.6" height="2852.7"/>
     <rect id="rect942" height="2802" width="15.952" y="383.29" x="1502.8" fill="#efef00"/>
    </g>
    <g id="g943" transform="translate(197.06 -.000030518)">
     <rect id="rect944" y="357.96" width="56.303" x="1482.6" height="2852.7"/>
     <rect id="rect945" height="2802" width="15.952" y="383.29" x="1502.8" fill="#efef00"/>
    </g>
   </g>
   <g id="g928" transform="matrix(-.78495 .83247 -.34476 -.23585 2811.1 622.21)">
    <rect id="rect929" y="376.91" width="171.54" x="1528.3" height="2824.2"/>
    <rect id="rect930" height="2768.8" width="131.37" y="404.6" x="1548.3" fill="#efef00"/>
    <g id="g931" transform="translate(9.3838 -.000030518)">
     <rect id="rect932" y="357.96" width="56.303" x="1482.6" height="2852.7"/>
     <rect id="rect933" height="2802" width="15.952" y="383.29" x="1502.8" fill="#efef00"/>
    </g>
    <g id="g934" transform="translate(197.06 -.000030518)">
     <rect id="rect935" y="357.96" width="56.303" x="1482.6" height="2852.7"/>
     <rect id="rect936" height="2802" width="15.952" y="383.29" x="1502.8" fill="#efef00"/>
    </g>
   </g>
   <g id="g606" transform="translate(3443.9 797.63)">
    <path id="path607" fill-opacity=".99967" fill="#efef00" transform="translate(-149.86 1690.5)" d="m-576.02-680.03c0.472 617.58-500.34 1118.8-1117.9 1118.8-617.58 0.981-1119.2-499.44-1119.7-1117-1.49-617.6 498.53-1119.6 1116.1-1120.6 617.58-1.96 1120 497.67 1121.5 1115.2 0.026 1.253 0.026 2.31 0.026 3.564zm262.44-0.001c0.582 762.45-617.7 1381.2-1380.1 1381.2-762.44 1.211-1381.8-616.6-1382.3-1379-1.85-762.47 615.47-1382.2 1377.9-1383.4 762.45-2.42 1382.7 614.41 1384.5 1376.8 0.032 1.547 0.032 2.852 0.032 4.399z"/>
    <path id="path608" transform="matrix(.98 0 0 .98 -781.88 -1562.1)" d="m296.75 2625.1c0.582 762.45-617.7 1381.2-1380.1 1381.2-762.45 1.21-1381.8-616.6-1382.4-1379-1.84-762.46 615.48-1382.2 1378-1383.4 762.45-2.42 1382.7 614.41 1384.5 1376.8 0.032 1.55 0.032 2.86 0.032 4.4zm-27.624 0c0.57 747.2-605.35 1353.6-1352.5 1353.6-747.2 1.18-1354.1-604.27-1354.7-1351.5-1.81-747.21 603.16-1354.6 1350.4-1355.8 747.2-2.38 1355 602.11 1356.8 1349.3 0.032 1.52 0.032 2.8 0.032 4.31z"/>
    <path id="path609" transform="matrix(.85016 0 0 .85016 -922.69 -1221.3)" d="m296.75 2625.1c0.582 762.45-617.7 1381.2-1380.1 1381.2-762.45 1.21-1381.8-616.6-1382.4-1379-1.84-762.46 615.48-1382.2 1378-1383.4 762.45-2.42 1382.7 614.41 1384.5 1376.8 0.032 1.55 0.032 2.86 0.032 4.4zm-27.624 0c0.57 747.2-605.35 1353.6-1352.5 1353.6-747.2 1.18-1354.1-604.27-1354.7-1351.5-1.81-747.21 603.16-1354.6 1350.4-1355.8 747.2-2.38 1355 602.11 1356.8 1349.3 0.032 1.52 0.032 2.8 0.032 4.31z"/>
   </g>
   <g id="g883" transform="matrix(1 0 0 .98355 9.3838 52.807)">
    <rect id="rect872" y="376.91" width="171.54" x="1528.3" height="2824.2"/>
    <rect id="rect871" height="2768.8" width="131.37" y="404.6" x="1548.3" fill="#efef00"/>
    <g id="g877" transform="translate(9.3838 -.000030518)">
     <rect id="rect875" y="357.96" width="56.303" x="1482.6" height="2852.7"/>
     <rect id="rect876" height="2802" width="15.952" y="383.29" x="1502.8" fill="#efef00"/>
    </g>
    <g id="g880" transform="translate(197.06 -.000030518)">
     <rect id="rect881" y="357.96" width="56.303" x="1482.6" height="2852.7"/>
     <rect id="rect882" height="2802" width="15.952" y="383.29" x="1502.8" fill="#efef00"/>
    </g>
   </g>
   <g id="g892" transform="matrix(.37140 1.0146 -.43278 .088917 1148.7 461.89)">
    <rect id="rect893" y="376.91" width="171.54" x="1528.3" height="2824.2"/>
    <rect id="rect894" height="2768.8" width="131.37" y="404.6" x="1548.3" fill="#efef00"/>
    <g id="g895" transform="translate(9.3838 -.000030518)">
     <rect id="rect896" y="357.96" width="56.303" x="1482.6" height="2852.7"/>
     <rect id="rect897" height="2802" width="15.952" y="383.29" x="1502.8" fill="#efef00"/>
    </g>
    <g id="g1963" transform="translate(197.06 -.000030518)">
     <rect id="rect899" y="357.96" width="56.303" x="1482.6" height="2852.7"/>
     <rect id="rect1965" height="2802" width="15.952" y="383.29" x="1502.8" fill="#efef00"/>
    </g>
   </g>
   <g id="g901" transform="matrix(.048179 1.0353 -.45375 .049280 1585.8 -73.118)">
    <rect id="rect902" y="376.91" width="171.54" x="1528.3" height="2824.2"/>
    <rect id="rect1968" height="2768.8" width="131.37" y="404.6" x="1548.3" fill="#efef00"/>
    <g id="g904" transform="translate(9.3838 -.000030518)">
     <rect id="rect905" y="357.96" width="56.303" x="1482.6" height="2852.7"/>
     <rect id="rect906" height="2802" width="15.952" y="383.29" x="1502.8" fill="#efef00"/>
    </g>
    <g id="g907" transform="translate(197.06 -.000030518)">
     <rect id="rect908" y="357.96" width="56.303" x="1482.6" height="2852.7"/>
     <rect id="rect909" height="2802" width="15.952" y="383.29" x="1502.8" fill="#efef00"/>
    </g>
   </g>
   <g id="g910" transform="matrix(-.61913 .96221 -.38214 -.16868 2610.1 86.531)">
    <rect id="rect911" y="376.91" width="171.54" x="1528.3" height="2824.2"/>
    <rect id="rect912" height="2768.8" width="131.37" y="404.6" x="1548.3" fill="#efef00"/>
    <g id="g1978" transform="translate(9.3838 -.000030518)">
     <rect id="rect1979" y="357.96" width="56.303" x="1482.6" height="2852.7"/>
     <rect id="rect915" height="2802" width="15.952" y="383.29" x="1502.8" fill="#efef00"/>
    </g>
    <g id="g1981" transform="translate(197.06 -.000030518)">
     <rect id="rect1982" y="357.96" width="56.303" x="1482.6" height="2852.7"/>
     <rect id="rect918" height="2802" width="15.952" y="383.29" x="1502.8" fill="#efef00"/>
    </g>
   </g>
   <g id="g946" transform="matrix(-.013401 1.0347 -.45603 -.022150 3190.7 -29.14)">
    <rect id="rect947" y="376.91" width="171.54" x="1528.3" height="2824.2"/>
    <rect id="rect948" height="2768.8" width="131.37" y="404.6" x="1548.3" fill="#efef00"/>
    <g id="g949" transform="translate(9.3838 -.000030518)">
     <rect id="rect950" y="357.96" width="56.303" x="1482.6" height="2852.7"/>
     <rect id="rect951" height="2802" width="15.952" y="383.29" x="1502.8" fill="#efef00"/>
    </g>
    <g id="g952" transform="translate(197.06 -.000030518)">
     <rect id="rect953" y="357.96" width="56.303" x="1482.6" height="2852.7"/>
     <rect id="rect954" height="2802" width="15.952" y="383.29" x="1502.8" fill="#efef00"/>
    </g>
   </g>
   <g id="g964" transform="matrix(.29417 .92656 -.37653 -.011881 2458.6 -379.7)">
    <rect id="rect965" y="376.91" width="171.54" x="1528.3" height="2824.2"/>
    <rect id="rect966" height="2768.8" width="131.37" y="404.6" x="1548.3" fill="#efef00"/>
    <g id="g967" transform="translate(9.3838 -.000030518)">
     <rect id="rect968" y="357.96" width="56.303" x="1482.6" height="2852.7"/>
     <rect id="rect969" height="2802" width="15.952" y="383.29" x="1502.8" fill="#efef00"/>
    </g>
    <g id="g970" transform="translate(197.06 -.000030518)">
     <rect id="rect971" y="357.96" width="56.303" x="1482.6" height="2852.7"/>
     <rect id="rect972" height="2802" width="15.952" y="383.29" x="1502.8" fill="#efef00"/>
    </g>
   </g>
   <g id="g973" transform="matrix(-.44645 .96157 -.41974 -.15349 3749.8 876.84)">
    <rect id="rect974" y="376.91" width="171.54" x="1528.3" height="2824.2"/>
    <rect id="rect975" height="2768.8" width="131.37" y="404.6" x="1548.3" fill="#efef00"/>
    <g id="g976" transform="translate(9.3838 -.000030518)">
     <rect id="rect977" y="357.96" width="56.303" x="1482.6" height="2852.7"/>
     <rect id="rect978" height="2802" width="15.952" y="383.29" x="1502.8" fill="#efef00"/>
    </g>
    <g id="g979" transform="translate(197.06 -.000030518)">
     <rect id="rect980" y="357.96" width="56.303" x="1482.6" height="2852.7"/>
     <rect id="rect981" height="2802" width="15.952" y="383.29" x="1502.8" fill="#efef00"/>
    </g>
   </g>
   <g id="g1287">
    <g id="g2012" transform="translate(388.6 -627.37)">
     <g id="g2013" fill="#f6f6fb" transform="translate(1261.6 8670.4)">
      <g id="g2014">
       <rect id="rect2015" y="-7147" width="1590.9" x="-850.89" height="1171.1"/>
       <ellipse id="path2016" d="m 3601.6224,4267.3076 c 0,384.4008 -331.4036,696.0192 -740.2108,696.0192 -408.8071,0 -740.2108,-311.6184 -740.2108,-696.0192 0,-384.4008 331.4037,-696.0191 740.2108,-696.0191 408.8072,0 740.2108,311.6183 740.2108,696.0191 z" rx="740.21" ry="696.02" transform="matrix(1.0746 0 0 1.0635 -3130.4 -10547)" cy="4267.3" cx="2861.4"/>
      </g>
      <g id="g2017" transform="translate(-5963.8 -3463.6)">
       <rect id="rect2018" y="-3340.7" width="859.09" x="5478.8" height="632.38"/>
       <ellipse id="path2019" d="m 3601.6224,4267.3076 c 0,384.4008 -331.4036,696.0192 -740.2108,696.0192 -408.8071,0 -740.2108,-311.6184 -740.2108,-696.0192 0,-384.4008 331.4037,-696.0191 740.2108,-696.0191 408.8072,0 740.2108,311.6183 740.2108,696.0191 z" rx="740.21" ry="696.02" transform="matrix(.58030 0 0 .57429 4247.9 -5088.5)" cy="4267.3" cx="2861.4"/>
      </g>
     </g>
     <g id="g2020" transform="translate(-4610.5 4587.5)">
      <g id="g2021" fill="#f00" transform="matrix(.95 0 0 .95 5869.2 3772.5)">
       <g id="g2022">
        <rect id="rect2023" y="-7147" width="1590.9" x="-850.89" height="1171.1"/>
        <ellipse id="path2024" d="m 3601.6224,4267.3076 c 0,384.4008 -331.4036,696.0192 -740.2108,696.0192 -408.8071,0 -740.2108,-311.6184 -740.2108,-696.0192 0,-384.4008 331.4037,-696.0191 740.2108,-696.0191 408.8072,0 740.2108,311.6183 740.2108,696.0191 z" rx="740.21" ry="696.02" transform="matrix(1.0746 0 0 1.0635 -3130.4 -10547)" cy="4267.3" cx="2861.4"/>
       </g>
       <g id="g2025" transform="translate(-5963.8 -3463.6)">
        <rect id="rect2026" y="-3340.7" width="859.09" x="5478.8" height="632.38"/>
        <ellipse id="path2027" d="m 3601.6224,4267.3076 c 0,384.4008 -331.4036,696.0192 -740.2108,696.0192 -408.8071,0 -740.2108,-311.6184 -740.2108,-696.0192 0,-384.4008 331.4037,-696.0191 740.2108,-696.0191 408.8072,0 740.2108,311.6183 740.2108,696.0191 z" rx="740.21" ry="696.02" transform="matrix(.58030 0 0 .57429 4247.9 -5088.5)" cy="4267.3" cx="2861.4"/>
       </g>
      </g>
      <g id="g2028" fill="#400" transform="matrix(.567 0 0 .567 5848 1394.8)">
       <g id="g2029">
        <rect id="rect2030" y="-7147" width="1590.9" x="-850.89" height="1171.1"/>
        <ellipse id="path2031" d="m 3601.6224,4267.3076 c 0,384.4008 -331.4036,696.0192 -740.2108,696.0192 -408.8071,0 -740.2108,-311.6184 -740.2108,-696.0192 0,-384.4008 331.4037,-696.0191 740.2108,-696.0191 408.8072,0 740.2108,311.6183 740.2108,696.0191 z" rx="740.21" ry="696.02" transform="matrix(1.0746 0 0 1.0635 -3130.4 -10547)" cy="4267.3" cx="2861.4"/>
       </g>
       <g id="g2032" transform="translate(-5963.8 -3463.6)">
        <rect id="rect2033" y="-3340.7" width="859.09" x="5478.8" height="632.38"/>
        <ellipse id="path2034" d="m 3601.6224,4267.3076 c 0,384.4008 -331.4036,696.0192 -740.2108,696.0192 -408.8071,0 -740.2108,-311.6184 -740.2108,-696.0192 0,-384.4008 331.4037,-696.0191 740.2108,-696.0191 408.8072,0 740.2108,311.6183 740.2108,696.0191 z" rx="740.21" ry="696.02" transform="matrix(.58030 0 0 .57429 4247.9 -5088.5)" cy="4267.3" cx="2861.4"/>
       </g>
      </g>
      <g id="g2035" fill="#fff" transform="matrix(.51172 0 0 .51172 5844.9 1051.6)">
       <g id="g2036">
        <rect id="rect2037" y="-7147" width="1590.9" x="-850.89" height="1171.1"/>
        <ellipse id="path2038" d="m 3601.6224,4267.3076 c 0,384.4008 -331.4036,696.0192 -740.2108,696.0192 -408.8071,0 -740.2108,-311.6184 -740.2108,-696.0192 0,-384.4008 331.4037,-696.0191 740.2108,-696.0191 408.8072,0 740.2108,311.6183 740.2108,696.0191 z" rx="740.21" ry="696.02" transform="matrix(1.0746 0 0 1.0635 -3130.4 -10547)" cy="4267.3" cx="2861.4"/>
       </g>
       <g id="g2039" transform="translate(-5963.8 -3463.6)">
        <rect id="rect2040" y="-3340.7" width="859.09" x="5478.8" height="632.38"/>
        <ellipse id="path2041" d="m 3601.6224,4267.3076 c 0,384.4008 -331.4036,696.0192 -740.2108,696.0192 -408.8071,0 -740.2108,-311.6184 -740.2108,-696.0192 0,-384.4008 331.4037,-696.0191 740.2108,-696.0191 408.8072,0 740.2108,311.6183 740.2108,696.0191 z" rx="740.21" ry="696.02" transform="matrix(.58030 0 0 .57429 4247.9 -5088.5)" cy="4267.3" cx="2861.4"/>
       </g>
      </g>
     </g>
    </g>
    <g id="g2042" transform="translate(-1370 3907.3)">
     <g id="g2043" fill="#3b3bff" transform="matrix(.15 0 0 .15 2790 -2140.7)">
      <g id="g2044" transform="translate(1261.6 8670.4)">
       <g id="g2045">
        <rect id="rect2046" y="-7147" width="1590.9" x="-850.89" height="1171.1"/>
        <ellipse id="path2047" d="m 3601.6224,4267.3076 c 0,384.4008 -331.4036,696.0192 -740.2108,696.0192 -408.8071,0 -740.2108,-311.6184 -740.2108,-696.0192 0,-384.4008 331.4037,-696.0191 740.2108,-696.0191 408.8072,0 740.2108,311.6183 740.2108,696.0191 z" rx="740.21" ry="696.02" transform="matrix(1.0746 0 0 1.0635 -3130.4 -10547)" cy="4267.3" cx="2861.4"/>
       </g>
       <g id="g2048" transform="translate(-5963.8 -3463.6)">
        <rect id="rect2049" y="-3340.7" width="859.09" x="5478.8" height="632.38"/>
        <ellipse id="path2050" d="m 3601.6224,4267.3076 c 0,384.4008 -331.4036,696.0192 -740.2108,696.0192 -408.8071,0 -740.2108,-311.6184 -740.2108,-696.0192 0,-384.4008 331.4037,-696.0191 740.2108,-696.0191 408.8072,0 740.2108,311.6183 740.2108,696.0191 z" rx="740.21" ry="696.02" transform="matrix(.58030 0 0 .57429 4247.9 -5088.5)" cy="4267.3" cx="2861.4"/>
       </g>
      </g>
      <g id="g2051" transform="translate(-4610.5 4587.5)">
       <g id="g2052" transform="matrix(.95 0 0 .95 5869.2 3772.5)">
        <g id="g2053">
         <rect id="rect2054" y="-7147" width="1590.9" x="-850.89" height="1171.1"/>
         <ellipse id="path2055" d="m 3601.6224,4267.3076 c 0,384.4008 -331.4036,696.0192 -740.2108,696.0192 -408.8071,0 -740.2108,-311.6184 -740.2108,-696.0192 0,-384.4008 331.4037,-696.0191 740.2108,-696.0191 408.8072,0 740.2108,311.6183 740.2108,696.0191 z" rx="740.21" ry="696.02" transform="matrix(1.0746 0 0 1.0635 -3130.4 -10547)" cy="4267.3" cx="2861.4"/>
        </g>
        <g id="g2056" transform="translate(-5963.8 -3463.6)">
         <rect id="rect2057" y="-3340.7" width="859.09" x="5478.8" height="632.38"/>
         <ellipse id="path2058" d="m 3601.6224,4267.3076 c 0,384.4008 -331.4036,696.0192 -740.2108,696.0192 -408.8071,0 -740.2108,-311.6184 -740.2108,-696.0192 0,-384.4008 331.4037,-696.0191 740.2108,-696.0191 408.8072,0 740.2108,311.6183 740.2108,696.0191 z" rx="740.21" ry="696.02" transform="matrix(.58030 0 0 .57429 4247.9 -5088.5)" cy="4267.3" cx="2861.4"/>
        </g>
       </g>
       <g id="g2059" transform="matrix(.567 0 0 .567 5848 1394.8)">
        <g id="g2060">
         <rect id="rect2061" y="-7147" width="1590.9" x="-850.89" height="1171.1"/>
         <ellipse id="path2062" d="m 3601.6224,4267.3076 c 0,384.4008 -331.4036,696.0192 -740.2108,696.0192 -408.8071,0 -740.2108,-311.6184 -740.2108,-696.0192 0,-384.4008 331.4037,-696.0191 740.2108,-696.0191 408.8072,0 740.2108,311.6183 740.2108,696.0191 z" rx="740.21" ry="696.02" transform="matrix(1.0746 0 0 1.0635 -3130.4 -10547)" cy="4267.3" cx="2861.4"/>
        </g>
        <g id="g2063" transform="translate(-5963.8 -3463.6)">
         <rect id="rect2064" y="-3340.7" width="859.09" x="5478.8" height="632.38"/>
         <ellipse id="path2065" d="m 3601.6224,4267.3076 c 0,384.4008 -331.4036,696.0192 -740.2108,696.0192 -408.8071,0 -740.2108,-311.6184 -740.2108,-696.0192 0,-384.4008 331.4037,-696.0191 740.2108,-696.0191 408.8072,0 740.2108,311.6183 740.2108,696.0191 z" rx="740.21" ry="696.02" transform="matrix(.58030 0 0 .57429 4247.9 -5088.5)" cy="4267.3" cx="2861.4"/>
        </g>
       </g>
       <g id="g2066" transform="matrix(.51172 0 0 .51172 5844.9 1051.6)">
        <g id="g2067">
         <rect id="rect2068" y="-7147" width="1590.9" x="-850.89" height="1171.1"/>
         <ellipse id="path2069" d="m 3601.6224,4267.3076 c 0,384.4008 -331.4036,696.0192 -740.2108,696.0192 -408.8071,0 -740.2108,-311.6184 -740.2108,-696.0192 0,-384.4008 331.4037,-696.0191 740.2108,-696.0191 408.8072,0 740.2108,311.6183 740.2108,696.0191 z" rx="740.21" ry="696.02" transform="matrix(1.0746 0 0 1.0635 -3130.4 -10547)" cy="4267.3" cx="2861.4"/>
        </g>
        <g id="g2070" transform="translate(-5963.8 -3463.6)">
         <rect id="rect2071" y="-3340.7" width="859.09" x="5478.8" height="632.38"/>
         <ellipse id="path2072" d="m 3601.6224,4267.3076 c 0,384.4008 -331.4036,696.0192 -740.2108,696.0192 -408.8071,0 -740.2108,-311.6184 -740.2108,-696.0192 0,-384.4008 331.4037,-696.0191 740.2108,-696.0191 408.8072,0 740.2108,311.6183 740.2108,696.0191 z" rx="740.21" ry="696.02" transform="matrix(.58030 0 0 .57429 4247.9 -5088.5)" cy="4267.3" cx="2861.4"/>
        </g>
       </g>
      </g>
     </g>
     <ellipse id="path2073" d="m 2938.7051,-1854.9092 c 0,19.71 -15.9781,35.6881 -35.688,35.6881 -19.7099,0 -35.688,-15.9781 -35.688,-35.6881 0,-19.7099 15.9781,-35.688 35.688,-35.688 19.7099,0 35.688,15.9781 35.688,35.688 z" rx="35.688" transform="translate(-3.7817 -7.5629)" ry="35.688" cy="-1854.9" cx="2903" fill="#fff"/>
     <ellipse id="path2074" d="m 2938.7051,-1854.9092 c 0,19.71 -15.9781,35.6881 -35.688,35.6881 -19.7099,0 -35.688,-15.9781 -35.688,-35.6881 0,-19.7099 15.9781,-35.688 35.688,-35.688 19.7099,0 35.688,15.9781 35.688,35.688 z" rx="35.688" transform="translate(129.99 -7.5629)" ry="35.688" cy="-1854.9" cx="2903" fill="#fff"/>
     <ellipse id="path2075" d="m 2938.7051,-1854.9092 c 0,19.71 -15.9781,35.6881 -35.688,35.6881 -19.7099,0 -35.688,-15.9781 -35.688,-35.6881 0,-19.7099 15.9781,-35.688 35.688,-35.688 19.7099,0 35.688,15.9781 35.688,35.688 z" rx="35.688" transform="translate(61.922 67.595)" ry="35.688" cy="-1854.9" cx="2903" fill="#fff"/>
     <ellipse id="path2076" d="m 2938.7051,-1854.9092 c 0,19.71 -15.9781,35.6881 -35.688,35.6881 -19.7099,0 -35.688,-15.9781 -35.688,-35.6881 0,-19.7099 15.9781,-35.688 35.688,-35.688 19.7099,0 35.688,15.9781 35.688,35.688 z" rx="35.688" transform="translate(1.4179 140.39)" ry="35.688" cy="-1854.9" cx="2903" fill="#fff"/>
     <ellipse id="path2077" d="m 2938.7051,-1854.9092 c 0,19.71 -15.9781,35.6881 -35.688,35.6881 -19.7099,0 -35.688,-15.9781 -35.688,-35.6881 0,-19.7099 15.9781,-35.688 35.688,-35.688 19.7099,0 35.688,15.9781 35.688,35.688 z" rx="35.688" transform="translate(128.57 142.75)" ry="35.688" cy="-1854.9" cx="2903" fill="#fff"/>
    </g>
    <path id="path2078" transform="translate(1296.7 561.41)" fill="#ff0" d="m-433.9 545.04v22.689h302.52v-22.689h-302.52zm26.249-62.601v63.152h257.14v-63.152h-257.14zm-22.688 207.62v22.692h302.52v-22.692h-302.52zm81.069-7.017c-0.031-41.191 31.622-74.621 70.654-74.621 39.033-0.066 70.737 33.311 70.768 74.502 0 0.327-0.001 0.602-0.004 0.928m-149.28 3.292c-0.034-45.769 35.136-82.913 78.505-82.913 43.37-0.073 78.596 37.012 78.63 82.78 0.001 0.363 0 0.669-0.004 1.031m-207.65-114.09v113.44h257.14v-113.44h-257.14zm-26.26-113.15v21.46h302.52v-21.46h-302.52zm-0.027-30.268v30.484h23.308v-30.484h-23.308zm279.36 0v30.484h23.308v-30.484h-23.308zm-232.9 0.612v30.484h23.308v-30.484h-23.308zm185.22-0.618v30.484h23.308v-30.484h-23.308zm-139.99-28.725v30.484h23.308v-30.484h-23.308zm92.917-0.006v30.484h23.308v-30.484h-23.308zm-45.236-0.612v30.484h23.308v-30.484h-23.308zm-47.745 31.32v29.144h116.15v-29.144h-116.15z"/>
    <g id="g2079" transform="translate(1302.4 561.96)" fill="#f00">
     <rect id="rect2080" y="477.6" width="23.308" x="-348.96" height="30.484"/>
     <rect id="rect2081" y="476.98" width="23.308" x="-244.43" height="30.484"/>
    </g>
    <path id="path2082" transform="translate(2457.9 565.04)" fill="#ff0" d="m-433.9 545.04v22.689h302.52v-22.689h-302.52zm26.249-62.601v63.152h257.14v-63.152h-257.14zm-22.688 207.62v22.692h302.52v-22.692h-302.52zm81.069-7.017c-0.031-41.191 31.622-74.621 70.654-74.621 39.033-0.066 70.737 33.311 70.768 74.502 0 0.327-0.001 0.602-0.004 0.928m-149.28 3.292c-0.034-45.769 35.136-82.913 78.505-82.913 43.37-0.073 78.596 37.012 78.63 82.78 0.001 0.363 0 0.669-0.004 1.031m-207.65-114.09v113.44h257.14v-113.44h-257.14zm-26.26-113.15v21.46h302.52v-21.46h-302.52zm-0.027-30.268v30.484h23.308v-30.484h-23.308zm279.36 0v30.484h23.308v-30.484h-23.308zm-232.9 0.612v30.484h23.308v-30.484h-23.308zm185.22-0.618v30.484h23.308v-30.484h-23.308zm-139.99-28.725v30.484h23.308v-30.484h-23.308zm92.917-0.006v30.484h23.308v-30.484h-23.308zm-45.236-0.612v30.484h23.308v-30.484h-23.308zm-47.745 31.32v29.144h116.15v-29.144h-116.15z"/>
    <g id="g2083" transform="translate(2463.5 565.59)" fill="#f00">
     <rect id="rect2084" y="477.6" width="23.308" x="-348.96" height="30.484"/>
     <rect id="rect2085" y="476.98" width="23.308" x="-244.43" height="30.484"/>
    </g>
    <path id="path2086" transform="translate(1888.2 565.04)" fill="#ff0" d="m-433.9 545.04v22.689h302.52v-22.689h-302.52zm26.249-62.601v63.152h257.14v-63.152h-257.14zm-22.688 207.62v22.692h302.52v-22.692h-302.52zm81.069-7.017c-0.031-41.191 31.622-74.621 70.654-74.621 39.033-0.066 70.737 33.311 70.768 74.502 0 0.327-0.001 0.602-0.004 0.928m-149.28 3.292c-0.034-45.769 35.136-82.913 78.505-82.913 43.37-0.073 78.596 37.012 78.63 82.78 0.001 0.363 0 0.669-0.004 1.031m-207.65-114.09v113.44h257.14v-113.44h-257.14zm-26.26-113.15v21.46h302.52v-21.46h-302.52zm-0.027-30.268v30.484h23.308v-30.484h-23.308zm279.36 0v30.484h23.308v-30.484h-23.308zm-232.9 0.612v30.484h23.308v-30.484h-23.308zm185.22-0.618v30.484h23.308v-30.484h-23.308zm-139.99-28.725v30.484h23.308v-30.484h-23.308zm92.917-0.006v30.484h23.308v-30.484h-23.308zm-45.236-0.612v30.484h23.308v-30.484h-23.308zm-47.745 31.32v29.144h116.15v-29.144h-116.15z"/>
    <g id="g2087" transform="translate(1893.8 565.59)" fill="#f00">
     <rect id="rect2088" y="477.6" width="23.308" x="-348.96" height="30.484"/>
     <rect id="rect2089" y="476.98" width="23.308" x="-244.43" height="30.484"/>
    </g>
    <path id="path2090" transform="translate(1271.3 1272.6)" fill="#ff0" d="m-433.9 545.04v22.689h302.52v-22.689h-302.52zm26.249-62.601v63.152h257.14v-63.152h-257.14zm-22.688 207.62v22.692h302.52v-22.692h-302.52zm81.069-7.017c-0.031-41.191 31.622-74.621 70.654-74.621 39.033-0.066 70.737 33.311 70.768 74.502 0 0.327-0.001 0.602-0.004 0.928m-149.28 3.292c-0.034-45.769 35.136-82.913 78.505-82.913 43.37-0.073 78.596 37.012 78.63 82.78 0.001 0.363 0 0.669-0.004 1.031m-207.65-114.09v113.44h257.14v-113.44h-257.14zm-26.26-113.15v21.46h302.52v-21.46h-302.52zm-0.027-30.268v30.484h23.308v-30.484h-23.308zm279.36 0v30.484h23.308v-30.484h-23.308zm-232.9 0.612v30.484h23.308v-30.484h-23.308zm185.22-0.618v30.484h23.308v-30.484h-23.308zm-139.99-28.725v30.484h23.308v-30.484h-23.308zm92.917-0.006v30.484h23.308v-30.484h-23.308zm-45.236-0.612v30.484h23.308v-30.484h-23.308zm-47.745 31.32v29.144h116.15v-29.144h-116.15z"/>
    <g id="g2091" transform="translate(1277 1273.2)" fill="#f00">
     <rect id="rect2092" y="477.6" width="23.308" x="-348.96" height="30.484"/>
     <rect id="rect2093" y="476.98" width="23.308" x="-244.43" height="30.484"/>
    </g>
    <path id="path2094" transform="translate(2479.7 1265.4)" fill="#ff0" d="m-433.9 545.04v22.689h302.52v-22.689h-302.52zm26.249-62.601v63.152h257.14v-63.152h-257.14zm-22.688 207.62v22.692h302.52v-22.692h-302.52zm81.069-7.017c-0.031-41.191 31.622-74.621 70.654-74.621 39.033-0.066 70.737 33.311 70.768 74.502 0 0.327-0.001 0.602-0.004 0.928m-149.28 3.292c-0.034-45.769 35.136-82.913 78.505-82.913 43.37-0.073 78.596 37.012 78.63 82.78 0.001 0.363 0 0.669-0.004 1.031m-207.65-114.09v113.44h257.14v-113.44h-257.14zm-26.26-113.15v21.46h302.52v-21.46h-302.52zm-0.027-30.268v30.484h23.308v-30.484h-23.308zm279.36 0v30.484h23.308v-30.484h-23.308zm-232.9 0.612v30.484h23.308v-30.484h-23.308zm185.22-0.618v30.484h23.308v-30.484h-23.308zm-139.99-28.725v30.484h23.308v-30.484h-23.308zm92.917-0.006v30.484h23.308v-30.484h-23.308zm-45.236-0.612v30.484h23.308v-30.484h-23.308zm-47.745 31.32v29.144h116.15v-29.144h-116.15z"/>
    <g id="g2095" transform="translate(2485.3 1265.9)" fill="#f00">
     <rect id="rect2096" y="477.6" width="23.308" x="-348.96" height="30.484"/>
     <rect id="rect2097" y="476.98" width="23.308" x="-244.43" height="30.484"/>
    </g>
    <path id="path2098" transform="matrix(.65276 -.75757 .75757 .65276 969.57 1819.3)" fill="#ff0" d="m-433.9 545.04v22.689h302.52v-22.689h-302.52zm26.249-62.601v63.152h257.14v-63.152h-257.14zm-22.688 207.62v22.692h302.52v-22.692h-302.52zm81.069-7.017c-0.031-41.191 31.622-74.621 70.654-74.621 39.033-0.066 70.737 33.311 70.768 74.502 0 0.327-0.001 0.602-0.004 0.928m-149.28 3.292c-0.034-45.769 35.136-82.913 78.505-82.913 43.37-0.073 78.596 37.012 78.63 82.78 0.001 0.363 0 0.669-0.004 1.031m-207.65-114.09v113.44h257.14v-113.44h-257.14zm-26.26-113.15v21.46h302.52v-21.46h-302.52zm-0.027-30.268v30.484h23.308v-30.484h-23.308zm279.36 0v30.484h23.308v-30.484h-23.308zm-232.9 0.612v30.484h23.308v-30.484h-23.308zm185.22-0.618v30.484h23.308v-30.484h-23.308zm-139.99-28.725v30.484h23.308v-30.484h-23.308zm92.917-0.006v30.484h23.308v-30.484h-23.308zm-45.236-0.612v30.484h23.308v-30.484h-23.308zm-47.745 31.32v29.144h116.15v-29.144h-116.15z"/>
    <g id="g2099" transform="matrix(.65276 -.75757 .75757 .65276 973.66 1815.4)" fill="#f00">
     <rect id="rect2100" y="477.6" width="23.308" x="-348.96" height="30.484"/>
     <rect id="rect2101" y="476.98" width="23.308" x="-244.43" height="30.484"/>
    </g>
    <path id="path2102" transform="matrix(-.65276 -.75757 -.75757 .65276 2231 1815.7)" fill="#ff0" d="m-433.9 545.04v22.689h302.52v-22.689h-302.52zm26.249-62.601v63.152h257.14v-63.152h-257.14zm-22.688 207.62v22.692h302.52v-22.692h-302.52zm81.069-7.017c-0.031-41.191 31.622-74.621 70.654-74.621 39.033-0.066 70.737 33.311 70.768 74.502 0 0.327-0.001 0.602-0.004 0.928m-149.28 3.292c-0.034-45.769 35.136-82.913 78.505-82.913 43.37-0.073 78.596 37.012 78.63 82.78 0.001 0.363 0 0.669-0.004 1.031m-207.65-114.09v113.44h257.14v-113.44h-257.14zm-26.26-113.15v21.46h302.52v-21.46h-302.52zm-0.027-30.268v30.484h23.308v-30.484h-23.308zm279.36 0v30.484h23.308v-30.484h-23.308zm-232.9 0.612v30.484h23.308v-30.484h-23.308zm185.22-0.618v30.484h23.308v-30.484h-23.308zm-139.99-28.725v30.484h23.308v-30.484h-23.308zm92.917-0.006v30.484h23.308v-30.484h-23.308zm-45.236-0.612v30.484h23.308v-30.484h-23.308zm-47.745 31.32v29.144h116.15v-29.144h-116.15z"/>
    <g id="g2103" transform="matrix(-.65276 -.75757 -.75757 .65276 2226.9 1811.8)" fill="#f00">
     <rect id="rect2104" y="477.6" width="23.308" x="-348.96" height="30.484"/>
     <rect id="rect2105" y="476.98" width="23.308" x="-244.43" height="30.484"/>
    </g>
    <g id="g2106" transform="translate(-1377.6 3272)">
     <g id="g2107" transform="translate(3.7814 11.344)">
      <g id="g2108" fill="#3b3bff" transform="matrix(.15 0 0 .15 2790 -2140.7)">
       <g id="g2109" transform="translate(1261.6 8670.4)">
        <g id="g2110">
         <rect id="rect2111" y="-7147" width="1590.9" x="-850.89" height="1171.1"/>
         <ellipse id="path2112" d="m 3601.6224,4267.3076 c 0,384.4008 -331.4036,696.0192 -740.2108,696.0192 -408.8071,0 -740.2108,-311.6184 -740.2108,-696.0192 0,-384.4008 331.4037,-696.0191 740.2108,-696.0191 408.8072,0 740.2108,311.6183 740.2108,696.0191 z" rx="740.21" ry="696.02" transform="matrix(1.0746 0 0 1.0635 -3130.4 -10547)" cy="4267.3" cx="2861.4"/>
        </g>
        <g id="g2113" transform="translate(-5963.8 -3463.6)">
         <rect id="rect2114" y="-3340.7" width="859.09" x="5478.8" height="632.38"/>
         <ellipse id="path2115" d="m 3601.6224,4267.3076 c 0,384.4008 -331.4036,696.0192 -740.2108,696.0192 -408.8071,0 -740.2108,-311.6184 -740.2108,-696.0192 0,-384.4008 331.4037,-696.0191 740.2108,-696.0191 408.8072,0 740.2108,311.6183 740.2108,696.0191 z" rx="740.21" ry="696.02" transform="matrix(.58030 0 0 .57429 4247.9 -5088.5)" cy="4267.3" cx="2861.4"/>
        </g>
       </g>
       <g id="g2116" transform="translate(-4610.5 4587.5)">
        <g id="g2117" transform="matrix(.95 0 0 .95 5869.2 3772.5)">
         <g id="g2118">
          <rect id="rect1155" y="-7147" width="1590.9" x="-850.89" height="1171.1"/>
          <ellipse id="path2120" d="m 3601.6224,4267.3076 c 0,384.4008 -331.4036,696.0192 -740.2108,696.0192 -408.8071,0 -740.2108,-311.6184 -740.2108,-696.0192 0,-384.4008 331.4037,-696.0191 740.2108,-696.0191 408.8072,0 740.2108,311.6183 740.2108,696.0191 z" rx="740.21" ry="696.02" transform="matrix(1.0746 0 0 1.0635 -3130.4 -10547)" cy="4267.3" cx="2861.4"/>
         </g>
         <g id="g2121" transform="translate(-5963.8 -3463.6)">
          <rect id="rect1158" y="-3340.7" width="859.09" x="5478.8" height="632.38"/>
          <ellipse id="path2123" d="m 3601.6224,4267.3076 c 0,384.4008 -331.4036,696.0192 -740.2108,696.0192 -408.8071,0 -740.2108,-311.6184 -740.2108,-696.0192 0,-384.4008 331.4037,-696.0191 740.2108,-696.0191 408.8072,0 740.2108,311.6183 740.2108,696.0191 z" rx="740.21" ry="696.02" transform="matrix(.58030 0 0 .57429 4247.9 -5088.5)" cy="4267.3" cx="2861.4"/>
         </g>
        </g>
        <g id="g2124" transform="matrix(.567 0 0 .567 5848 1394.8)">
         <g id="g2125">
          <rect id="rect2126" y="-7147" width="1590.9" x="-850.89" height="1171.1"/>
          <ellipse id="path2127" d="m 3601.6224,4267.3076 c 0,384.4008 -331.4036,696.0192 -740.2108,696.0192 -408.8071,0 -740.2108,-311.6184 -740.2108,-696.0192 0,-384.4008 331.4037,-696.0191 740.2108,-696.0191 408.8072,0 740.2108,311.6183 740.2108,696.0191 z" rx="740.21" ry="696.02" transform="matrix(1.0746 0 0 1.0635 -3130.4 -10547)" cy="4267.3" cx="2861.4"/>
         </g>
         <g id="g2128" transform="translate(-5963.8 -3463.6)">
          <rect id="rect2129" y="-3340.7" width="859.09" x="5478.8" height="632.38"/>
          <ellipse id="path2130" d="m 3601.6224,4267.3076 c 0,384.4008 -331.4036,696.0192 -740.2108,696.0192 -408.8071,0 -740.2108,-311.6184 -740.2108,-696.0192 0,-384.4008 331.4037,-696.0191 740.2108,-696.0191 408.8072,0 740.2108,311.6183 740.2108,696.0191 z" rx="740.21" ry="696.02" transform="matrix(.58030 0 0 .57429 4247.9 -5088.5)" cy="4267.3" cx="2861.4"/>
         </g>
        </g>
        <g id="g2131" transform="matrix(.51172 0 0 .51172 5844.9 1051.6)">
         <g id="g1168">
          <rect id="rect1169" y="-7147" width="1590.9" x="-850.89" height="1171.1"/>
          <ellipse id="path2134" d="m 3601.6224,4267.3076 c 0,384.4008 -331.4036,696.0192 -740.2108,696.0192 -408.8071,0 -740.2108,-311.6184 -740.2108,-696.0192 0,-384.4008 331.4037,-696.0191 740.2108,-696.0191 408.8072,0 740.2108,311.6183 740.2108,696.0191 z" rx="740.21" ry="696.02" transform="matrix(1.0746 0 0 1.0635 -3130.4 -10547)" cy="4267.3" cx="2861.4"/>
         </g>
         <g id="g2135" transform="translate(-5963.8 -3463.6)">
          <rect id="rect2136" y="-3340.7" width="859.09" x="5478.8" height="632.38"/>
          <ellipse id="path2137" d="m 3601.6224,4267.3076 c 0,384.4008 -331.4036,696.0192 -740.2108,696.0192 -408.8071,0 -740.2108,-311.6184 -740.2108,-696.0192 0,-384.4008 331.4037,-696.0191 740.2108,-696.0191 408.8072,0 740.2108,311.6183 740.2108,696.0191 z" rx="740.21" ry="696.02" transform="matrix(.58030 0 0 .57429 4247.9 -5088.5)" cy="4267.3" cx="2861.4"/>
         </g>
        </g>
       </g>
      </g>
      <ellipse id="path2138" d="m 2938.7051,-1854.9092 c 0,19.71 -15.9781,35.6881 -35.688,35.6881 -19.7099,0 -35.688,-15.9781 -35.688,-35.6881 0,-19.7099 15.9781,-35.688 35.688,-35.688 19.7099,0 35.688,15.9781 35.688,35.688 z" rx="35.688" transform="translate(-3.7817 -7.5629)" ry="35.688" cy="-1854.9" cx="2903" fill="#fff"/>
      <ellipse id="path2139" d="m 2938.7051,-1854.9092 c 0,19.71 -15.9781,35.6881 -35.688,35.6881 -19.7099,0 -35.688,-15.9781 -35.688,-35.6881 0,-19.7099 15.9781,-35.688 35.688,-35.688 19.7099,0 35.688,15.9781 35.688,35.688 z" rx="35.688" transform="translate(129.99 -7.5629)" ry="35.688" cy="-1854.9" cx="2903" fill="#fff"/>
      <ellipse id="path2140" d="m 2938.7051,-1854.9092 c 0,19.71 -15.9781,35.6881 -35.688,35.6881 -19.7099,0 -35.688,-15.9781 -35.688,-35.6881 0,-19.7099 15.9781,-35.688 35.688,-35.688 19.7099,0 35.688,15.9781 35.688,35.688 z" rx="35.688" transform="translate(61.922 67.595)" ry="35.688" cy="-1854.9" cx="2903" fill="#fff"/>
      <ellipse id="path2141" d="m 2938.7051,-1854.9092 c 0,19.71 -15.9781,35.6881 -35.688,35.6881 -19.7099,0 -35.688,-15.9781 -35.688,-35.6881 0,-19.7099 15.9781,-35.688 35.688,-35.688 19.7099,0 35.688,15.9781 35.688,35.688 z" rx="35.688" transform="translate(1.4179 140.39)" ry="35.688" cy="-1854.9" cx="2903" fill="#fff"/>
      <ellipse id="path2142" d="m 2938.7051,-1854.9092 c 0,19.71 -15.9781,35.6881 -35.688,35.6881 -19.7099,0 -35.688,-15.9781 -35.688,-35.6881 0,-19.7099 15.9781,-35.688 35.688,-35.688 19.7099,0 35.688,15.9781 35.688,35.688 z" rx="35.688" transform="translate(128.57 142.75)" ry="35.688" cy="-1854.9" cx="2903" fill="#fff"/>
     </g>
     <g id="g2143" transform="translate(3.7817 321.43)">
      <g id="g2144" fill="#3b3bff" transform="matrix(.15 0 0 .15 2790 -2140.7)">
       <g id="g2145" transform="translate(1261.6 8670.4)">
        <g id="g2146">
         <rect id="rect2147" y="-7147" width="1590.9" x="-850.89" height="1171.1"/>
         <ellipse id="path2148" d="m 3601.6224,4267.3076 c 0,384.4008 -331.4036,696.0192 -740.2108,696.0192 -408.8071,0 -740.2108,-311.6184 -740.2108,-696.0192 0,-384.4008 331.4037,-696.0191 740.2108,-696.0191 408.8072,0 740.2108,311.6183 740.2108,696.0191 z" rx="740.21" ry="696.02" transform="matrix(1.0746 0 0 1.0635 -3130.4 -10547)" cy="4267.3" cx="2861.4"/>
        </g>
        <g id="g2149" transform="translate(-5963.8 -3463.6)">
         <rect id="rect2150" y="-3340.7" width="859.09" x="5478.8" height="632.38"/>
         <ellipse id="path2151" d="m 3601.6224,4267.3076 c 0,384.4008 -331.4036,696.0192 -740.2108,696.0192 -408.8071,0 -740.2108,-311.6184 -740.2108,-696.0192 0,-384.4008 331.4037,-696.0191 740.2108,-696.0191 408.8072,0 740.2108,311.6183 740.2108,696.0191 z" rx="740.21" ry="696.02" transform="matrix(.58030 0 0 .57429 4247.9 -5088.5)" cy="4267.3" cx="2861.4"/>
        </g>
       </g>
       <g id="g2152" transform="translate(-4610.5 4587.5)">
        <g id="g2153" transform="matrix(.95 0 0 .95 5869.2 3772.5)">
         <g id="g2154">
          <rect id="rect2155" y="-7147" width="1590.9" x="-850.89" height="1171.1"/>
          <ellipse id="path2156" d="m 3601.6224,4267.3076 c 0,384.4008 -331.4036,696.0192 -740.2108,696.0192 -408.8071,0 -740.2108,-311.6184 -740.2108,-696.0192 0,-384.4008 331.4037,-696.0191 740.2108,-696.0191 408.8072,0 740.2108,311.6183 740.2108,696.0191 z" rx="740.21" ry="696.02" transform="matrix(1.0746 0 0 1.0635 -3130.4 -10547)" cy="4267.3" cx="2861.4"/>
         </g>
         <g id="g2157" transform="translate(-5963.8 -3463.6)">
          <rect id="rect2158" y="-3340.7" width="859.09" x="5478.8" height="632.38"/>
          <ellipse id="path2159" d="m 3601.6224,4267.3076 c 0,384.4008 -331.4036,696.0192 -740.2108,696.0192 -408.8071,0 -740.2108,-311.6184 -740.2108,-696.0192 0,-384.4008 331.4037,-696.0191 740.2108,-696.0191 408.8072,0 740.2108,311.6183 740.2108,696.0191 z" rx="740.21" ry="696.02" transform="matrix(.58030 0 0 .57429 4247.9 -5088.5)" cy="4267.3" cx="2861.4"/>
         </g>
        </g>
        <g id="g2160" transform="matrix(.567 0 0 .567 5848 1394.8)">
         <g id="g2161">
          <rect id="rect2162" y="-7147" width="1590.9" x="-850.89" height="1171.1"/>
          <ellipse id="path2163" d="m 3601.6224,4267.3076 c 0,384.4008 -331.4036,696.0192 -740.2108,696.0192 -408.8071,0 -740.2108,-311.6184 -740.2108,-696.0192 0,-384.4008 331.4037,-696.0191 740.2108,-696.0191 408.8072,0 740.2108,311.6183 740.2108,696.0191 z" rx="740.21" ry="696.02" transform="matrix(1.0746 0 0 1.0635 -3130.4 -10547)" cy="4267.3" cx="2861.4"/>
         </g>
         <g id="g2164" transform="translate(-5963.8 -3463.6)">
          <rect id="rect2165" y="-3340.7" width="859.09" x="5478.8" height="632.38"/>
          <ellipse id="path2166" d="m 3601.6224,4267.3076 c 0,384.4008 -331.4036,696.0192 -740.2108,696.0192 -408.8071,0 -740.2108,-311.6184 -740.2108,-696.0192 0,-384.4008 331.4037,-696.0191 740.2108,-696.0191 408.8072,0 740.2108,311.6183 740.2108,696.0191 z" rx="740.21" ry="696.02" transform="matrix(.58030 0 0 .57429 4247.9 -5088.5)" cy="4267.3" cx="2861.4"/>
         </g>
        </g>
        <g id="g2167" transform="matrix(.51172 0 0 .51172 5844.9 1051.6)">
         <g id="g2168">
          <rect id="rect2169" y="-7147" width="1590.9" x="-850.89" height="1171.1"/>
          <ellipse id="path2170" d="m 3601.6224,4267.3076 c 0,384.4008 -331.4036,696.0192 -740.2108,696.0192 -408.8071,0 -740.2108,-311.6184 -740.2108,-696.0192 0,-384.4008 331.4037,-696.0191 740.2108,-696.0191 408.8072,0 740.2108,311.6183 740.2108,696.0191 z" rx="740.21" ry="696.02" transform="matrix(1.0746 0 0 1.0635 -3130.4 -10547)" cy="4267.3" cx="2861.4"/>
         </g>
         <g id="g2171" transform="translate(-5963.8 -3463.6)">
          <rect id="rect2172" y="-3340.7" width="859.09" x="5478.8" height="632.38"/>
          <ellipse id="path2173" d="m 3601.6224,4267.3076 c 0,384.4008 -331.4036,696.0192 -740.2108,696.0192 -408.8071,0 -740.2108,-311.6184 -740.2108,-696.0192 0,-384.4008 331.4037,-696.0191 740.2108,-696.0191 408.8072,0 740.2108,311.6183 740.2108,696.0191 z" rx="740.21" ry="696.02" transform="matrix(.58030 0 0 .57429 4247.9 -5088.5)" cy="4267.3" cx="2861.4"/>
         </g>
        </g>
       </g>
      </g>
      <ellipse id="path2174" d="m 2938.7051,-1854.9092 c 0,19.71 -15.9781,35.6881 -35.688,35.6881 -19.7099,0 -35.688,-15.9781 -35.688,-35.6881 0,-19.7099 15.9781,-35.688 35.688,-35.688 19.7099,0 35.688,15.9781 35.688,35.688 z" rx="35.688" transform="translate(-3.7817 -7.5629)" ry="35.688" cy="-1854.9" cx="2903" fill="#fff"/>
      <ellipse id="path2175" d="m 2938.7051,-1854.9092 c 0,19.71 -15.9781,35.6881 -35.688,35.6881 -19.7099,0 -35.688,-15.9781 -35.688,-35.6881 0,-19.7099 15.9781,-35.688 35.688,-35.688 19.7099,0 35.688,15.9781 35.688,35.688 z" rx="35.688" transform="translate(129.99 -7.5629)" ry="35.688" cy="-1854.9" cx="2903" fill="#fff"/>
      <ellipse id="path2176" d="m 2938.7051,-1854.9092 c 0,19.71 -15.9781,35.6881 -35.688,35.6881 -19.7099,0 -35.688,-15.9781 -35.688,-35.6881 0,-19.7099 15.9781,-35.688 35.688,-35.688 19.7099,0 35.688,15.9781 35.688,35.688 z" rx="35.688" transform="translate(61.922 67.595)" ry="35.688" cy="-1854.9" cx="2903" fill="#fff"/>
      <ellipse id="path2177" d="m 2938.7051,-1854.9092 c 0,19.71 -15.9781,35.6881 -35.688,35.6881 -19.7099,0 -35.688,-15.9781 -35.688,-35.6881 0,-19.7099 15.9781,-35.688 35.688,-35.688 19.7099,0 35.688,15.9781 35.688,35.688 z" rx="35.688" transform="translate(1.4179 140.39)" ry="35.688" cy="-1854.9" cx="2903" fill="#fff"/>
      <ellipse id="path2178" d="m 2938.7051,-1854.9092 c 0,19.71 -15.9781,35.6881 -35.688,35.6881 -19.7099,0 -35.688,-15.9781 -35.688,-35.6881 0,-19.7099 15.9781,-35.688 35.688,-35.688 19.7099,0 35.688,15.9781 35.688,35.688 z" rx="35.688" transform="translate(128.57 142.75)" ry="35.688" cy="-1854.9" cx="2903" fill="#fff"/>
     </g>
     <g id="g1215" transform="translate(268.49 321.43)">
      <g id="g2180" fill="#3b3bff" transform="matrix(.15 0 0 .15 2790 -2140.7)">
       <g id="g2181" transform="translate(1261.6 8670.4)">
        <g id="g2182">
         <rect id="rect2183" y="-7147" width="1590.9" x="-850.89" height="1171.1"/>
         <ellipse id="path2184" d="m 3601.6224,4267.3076 c 0,384.4008 -331.4036,696.0192 -740.2108,696.0192 -408.8071,0 -740.2108,-311.6184 -740.2108,-696.0192 0,-384.4008 331.4037,-696.0191 740.2108,-696.0191 408.8072,0 740.2108,311.6183 740.2108,696.0191 z" rx="740.21" ry="696.02" transform="matrix(1.0746 0 0 1.0635 -3130.4 -10547)" cy="4267.3" cx="2861.4"/>
        </g>
        <g id="g2185" transform="translate(-5963.8 -3463.6)">
         <rect id="rect2186" y="-3340.7" width="859.09" x="5478.8" height="632.38"/>
         <ellipse id="path2187" d="m 3601.6224,4267.3076 c 0,384.4008 -331.4036,696.0192 -740.2108,696.0192 -408.8071,0 -740.2108,-311.6184 -740.2108,-696.0192 0,-384.4008 331.4037,-696.0191 740.2108,-696.0191 408.8072,0 740.2108,311.6183 740.2108,696.0191 z" rx="740.21" ry="696.02" transform="matrix(.58030 0 0 .57429 4247.9 -5088.5)" cy="4267.3" cx="2861.4"/>
        </g>
       </g>
       <g id="g2188" transform="translate(-4610.5 4587.5)">
        <g id="g2189" transform="matrix(.95 0 0 .95 5869.2 3772.5)">
         <g id="g2190">
          <rect id="rect2191" y="-7147" width="1590.9" x="-850.89" height="1171.1"/>
          <ellipse id="path2192" d="m 3601.6224,4267.3076 c 0,384.4008 -331.4036,696.0192 -740.2108,696.0192 -408.8071,0 -740.2108,-311.6184 -740.2108,-696.0192 0,-384.4008 331.4037,-696.0191 740.2108,-696.0191 408.8072,0 740.2108,311.6183 740.2108,696.0191 z" rx="740.21" ry="696.02" transform="matrix(1.0746 0 0 1.0635 -3130.4 -10547)" cy="4267.3" cx="2861.4"/>
         </g>
         <g id="g2193" transform="translate(-5963.8 -3463.6)">
          <rect id="rect2194" y="-3340.7" width="859.09" x="5478.8" height="632.38"/>
          <ellipse id="path2195" d="m 3601.6224,4267.3076 c 0,384.4008 -331.4036,696.0192 -740.2108,696.0192 -408.8071,0 -740.2108,-311.6184 -740.2108,-696.0192 0,-384.4008 331.4037,-696.0191 740.2108,-696.0191 408.8072,0 740.2108,311.6183 740.2108,696.0191 z" rx="740.21" ry="696.02" transform="matrix(.58030 0 0 .57429 4247.9 -5088.5)" cy="4267.3" cx="2861.4"/>
         </g>
        </g>
        <g id="g2196" transform="matrix(.567 0 0 .567 5848 1394.8)">
         <g id="g1233">
          <rect id="rect1234" y="-7147" width="1590.9" x="-850.89" height="1171.1"/>
          <ellipse id="path2199" d="m 3601.6224,4267.3076 c 0,384.4008 -331.4036,696.0192 -740.2108,696.0192 -408.8071,0 -740.2108,-311.6184 -740.2108,-696.0192 0,-384.4008 331.4037,-696.0191 740.2108,-696.0191 408.8072,0 740.2108,311.6183 740.2108,696.0191 z" rx="740.21" ry="696.02" transform="matrix(1.0746 0 0 1.0635 -3130.4 -10547)" cy="4267.3" cx="2861.4"/>
         </g>
         <g id="g2200" transform="translate(-5963.8 -3463.6)">
          <rect id="rect2201" y="-3340.7" width="859.09" x="5478.8" height="632.38"/>
          <ellipse id="path2202" d="m 3601.6224,4267.3076 c 0,384.4008 -331.4036,696.0192 -740.2108,696.0192 -408.8071,0 -740.2108,-311.6184 -740.2108,-696.0192 0,-384.4008 331.4037,-696.0191 740.2108,-696.0191 408.8072,0 740.2108,311.6183 740.2108,696.0191 z" rx="740.21" ry="696.02" transform="matrix(.58030 0 0 .57429 4247.9 -5088.5)" cy="4267.3" cx="2861.4"/>
         </g>
        </g>
        <g id="g2203" transform="matrix(.51172 0 0 .51172 5844.9 1051.6)">
         <g id="g2204">
          <rect id="rect2205" y="-7147" width="1590.9" x="-850.89" height="1171.1"/>
          <ellipse id="path2206" d="m 3601.6224,4267.3076 c 0,384.4008 -331.4036,696.0192 -740.2108,696.0192 -408.8071,0 -740.2108,-311.6184 -740.2108,-696.0192 0,-384.4008 331.4037,-696.0191 740.2108,-696.0191 408.8072,0 740.2108,311.6183 740.2108,696.0191 z" rx="740.21" ry="696.02" transform="matrix(1.0746 0 0 1.0635 -3130.4 -10547)" cy="4267.3" cx="2861.4"/>
         </g>
         <g id="g2207" transform="translate(-5963.8 -3463.6)">
          <rect id="rect2208" y="-3340.7" width="859.09" x="5478.8" height="632.38"/>
          <ellipse id="path2209" d="m 3601.6224,4267.3076 c 0,384.4008 -331.4036,696.0192 -740.2108,696.0192 -408.8071,0 -740.2108,-311.6184 -740.2108,-696.0192 0,-384.4008 331.4037,-696.0191 740.2108,-696.0191 408.8072,0 740.2108,311.6183 740.2108,696.0191 z" rx="740.21" ry="696.02" transform="matrix(.58030 0 0 .57429 4247.9 -5088.5)" cy="4267.3" cx="2861.4"/>
         </g>
        </g>
       </g>
      </g>
      <ellipse id="path2210" d="m 2938.7051,-1854.9092 c 0,19.71 -15.9781,35.6881 -35.688,35.6881 -19.7099,0 -35.688,-15.9781 -35.688,-35.6881 0,-19.7099 15.9781,-35.688 35.688,-35.688 19.7099,0 35.688,15.9781 35.688,35.688 z" rx="35.688" transform="translate(-3.7817 -7.5629)" ry="35.688" cy="-1854.9" cx="2903" fill="#fff"/>
      <ellipse id="path2211" d="m 2938.7051,-1854.9092 c 0,19.71 -15.9781,35.6881 -35.688,35.6881 -19.7099,0 -35.688,-15.9781 -35.688,-35.6881 0,-19.7099 15.9781,-35.688 35.688,-35.688 19.7099,0 35.688,15.9781 35.688,35.688 z" rx="35.688" transform="translate(129.99 -7.5629)" ry="35.688" cy="-1854.9" cx="2903" fill="#fff"/>
      <ellipse id="path2212" d="m 2938.7051,-1854.9092 c 0,19.71 -15.9781,35.6881 -35.688,35.6881 -19.7099,0 -35.688,-15.9781 -35.688,-35.6881 0,-19.7099 15.9781,-35.688 35.688,-35.688 19.7099,0 35.688,15.9781 35.688,35.688 z" rx="35.688" transform="translate(61.922 67.595)" ry="35.688" cy="-1854.9" cx="2903" fill="#fff"/>
      <ellipse id="path2213" d="m 2938.7051,-1854.9092 c 0,19.71 -15.9781,35.6881 -35.688,35.6881 -19.7099,0 -35.688,-15.9781 -35.688,-35.6881 0,-19.7099 15.9781,-35.688 35.688,-35.688 19.7099,0 35.688,15.9781 35.688,35.688 z" rx="35.688" transform="translate(1.4179 140.39)" ry="35.688" cy="-1854.9" cx="2903" fill="#fff"/>
      <ellipse id="path2214" d="m 2938.7051,-1854.9092 c 0,19.71 -15.9781,35.6881 -35.688,35.6881 -19.7099,0 -35.688,-15.9781 -35.688,-35.6881 0,-19.7099 15.9781,-35.688 35.688,-35.688 19.7099,0 35.688,15.9781 35.688,35.688 z" rx="35.688" transform="translate(128.57 142.75)" ry="35.688" cy="-1854.9" cx="2903" fill="#fff"/>
     </g>
     <g id="g2215" transform="translate(-260.92 321.43)">
      <g id="g2216" fill="#3b3bff" transform="matrix(.15 0 0 .15 2790 -2140.7)">
       <g id="g2217" transform="translate(1261.6 8670.4)">
        <g id="g2218">
         <rect id="rect2219" y="-7147" width="1590.9" x="-850.89" height="1171.1"/>
         <ellipse id="path2220" d="m 3601.6224,4267.3076 c 0,384.4008 -331.4036,696.0192 -740.2108,696.0192 -408.8071,0 -740.2108,-311.6184 -740.2108,-696.0192 0,-384.4008 331.4037,-696.0191 740.2108,-696.0191 408.8072,0 740.2108,311.6183 740.2108,696.0191 z" rx="740.21" ry="696.02" transform="matrix(1.0746 0 0 1.0635 -3130.4 -10547)" cy="4267.3" cx="2861.4"/>
        </g>
        <g id="g2221" transform="translate(-5963.8 -3463.6)">
         <rect id="rect2222" y="-3340.7" width="859.09" x="5478.8" height="632.38"/>
         <ellipse id="path2223" d="m 3601.6224,4267.3076 c 0,384.4008 -331.4036,696.0192 -740.2108,696.0192 -408.8071,0 -740.2108,-311.6184 -740.2108,-696.0192 0,-384.4008 331.4037,-696.0191 740.2108,-696.0191 408.8072,0 740.2108,311.6183 740.2108,696.0191 z" rx="740.21" ry="696.02" transform="matrix(.58030 0 0 .57429 4247.9 -5088.5)" cy="4267.3" cx="2861.4"/>
        </g>
       </g>
       <g id="g2224" transform="translate(-4610.5 4587.5)">
        <g id="g2225" transform="matrix(.95 0 0 .95 5869.2 3772.5)">
         <g id="g2226">
          <rect id="rect2227" y="-7147" width="1590.9" x="-850.89" height="1171.1"/>
          <ellipse id="path2228" d="m 3601.6224,4267.3076 c 0,384.4008 -331.4036,696.0192 -740.2108,696.0192 -408.8071,0 -740.2108,-311.6184 -740.2108,-696.0192 0,-384.4008 331.4037,-696.0191 740.2108,-696.0191 408.8072,0 740.2108,311.6183 740.2108,696.0191 z" rx="740.21" ry="696.02" transform="matrix(1.0746 0 0 1.0635 -3130.4 -10547)" cy="4267.3" cx="2861.4"/>
         </g>
         <g id="g2229" transform="translate(-5963.8 -3463.6)">
          <rect id="rect2230" y="-3340.7" width="859.09" x="5478.8" height="632.38"/>
          <ellipse id="path2231" d="m 3601.6224,4267.3076 c 0,384.4008 -331.4036,696.0192 -740.2108,696.0192 -408.8071,0 -740.2108,-311.6184 -740.2108,-696.0192 0,-384.4008 331.4037,-696.0191 740.2108,-696.0191 408.8072,0 740.2108,311.6183 740.2108,696.0191 z" rx="740.21" ry="696.02" transform="matrix(.58030 0 0 .57429 4247.9 -5088.5)" cy="4267.3" cx="2861.4"/>
         </g>
        </g>
        <g id="g2232" transform="matrix(.567 0 0 .567 5848 1394.8)">
         <g id="g2233">
          <rect id="rect2234" y="-7147" width="1590.9" x="-850.89" height="1171.1"/>
          <ellipse id="path2235" d="m 3601.6224,4267.3076 c 0,384.4008 -331.4036,696.0192 -740.2108,696.0192 -408.8071,0 -740.2108,-311.6184 -740.2108,-696.0192 0,-384.4008 331.4037,-696.0191 740.2108,-696.0191 408.8072,0 740.2108,311.6183 740.2108,696.0191 z" rx="740.21" ry="696.02" transform="matrix(1.0746 0 0 1.0635 -3130.4 -10547)" cy="4267.3" cx="2861.4"/>
         </g>
         <g id="g2236" transform="translate(-5963.8 -3463.6)">
          <rect id="rect2237" y="-3340.7" width="859.09" x="5478.8" height="632.38"/>
          <ellipse id="path2238" d="m 3601.6224,4267.3076 c 0,384.4008 -331.4036,696.0192 -740.2108,696.0192 -408.8071,0 -740.2108,-311.6184 -740.2108,-696.0192 0,-384.4008 331.4037,-696.0191 740.2108,-696.0191 408.8072,0 740.2108,311.6183 740.2108,696.0191 z" rx="740.21" ry="696.02" transform="matrix(.58030 0 0 .57429 4247.9 -5088.5)" cy="4267.3" cx="2861.4"/>
         </g>
        </g>
        <g id="g2239" transform="matrix(.51172 0 0 .51172 5844.9 1051.6)">
         <g id="g2240">
          <rect id="rect2241" y="-7147" width="1590.9" x="-850.89" height="1171.1"/>
          <ellipse id="path2242" d="m 3601.6224,4267.3076 c 0,384.4008 -331.4036,696.0192 -740.2108,696.0192 -408.8071,0 -740.2108,-311.6184 -740.2108,-696.0192 0,-384.4008 331.4037,-696.0191 740.2108,-696.0191 408.8072,0 740.2108,311.6183 740.2108,696.0191 z" rx="740.21" ry="696.02" transform="matrix(1.0746 0 0 1.0635 -3130.4 -10547)" cy="4267.3" cx="2861.4"/>
         </g>
         <g id="g2243" transform="translate(-5963.8 -3463.6)">
          <rect id="rect2244" y="-3340.7" width="859.09" x="5478.8" height="632.38"/>
          <ellipse id="path2245" d="m 3601.6224,4267.3076 c 0,384.4008 -331.4036,696.0192 -740.2108,696.0192 -408.8071,0 -740.2108,-311.6184 -740.2108,-696.0192 0,-384.4008 331.4037,-696.0191 740.2108,-696.0191 408.8072,0 740.2108,311.6183 740.2108,696.0191 z" rx="740.21" ry="696.02" transform="matrix(.58030 0 0 .57429 4247.9 -5088.5)" cy="4267.3" cx="2861.4"/>
         </g>
        </g>
       </g>
      </g>
      <ellipse id="path2246" d="m 2938.7051,-1854.9092 c 0,19.71 -15.9781,35.6881 -35.688,35.6881 -19.7099,0 -35.688,-15.9781 -35.688,-35.6881 0,-19.7099 15.9781,-35.688 35.688,-35.688 19.7099,0 35.688,15.9781 35.688,35.688 z" rx="35.688" transform="translate(-3.7817 -7.5629)" ry="35.688" cy="-1854.9" cx="2903" fill="#fff"/>
      <ellipse id="path2247" d="m 2938.7051,-1854.9092 c 0,19.71 -15.9781,35.6881 -35.688,35.6881 -19.7099,0 -35.688,-15.9781 -35.688,-35.6881 0,-19.7099 15.9781,-35.688 35.688,-35.688 19.7099,0 35.688,15.9781 35.688,35.688 z" rx="35.688" transform="translate(129.99 -7.5629)" ry="35.688" cy="-1854.9" cx="2903" fill="#fff"/>
      <ellipse id="path2248" d="m 2938.7051,-1854.9092 c 0,19.71 -15.9781,35.6881 -35.688,35.6881 -19.7099,0 -35.688,-15.9781 -35.688,-35.6881 0,-19.7099 15.9781,-35.688 35.688,-35.688 19.7099,0 35.688,15.9781 35.688,35.688 z" rx="35.688" transform="translate(61.922 67.595)" ry="35.688" cy="-1854.9" cx="2903" fill="#fff"/>
      <ellipse id="path2249" d="m 2938.7051,-1854.9092 c 0,19.71 -15.9781,35.6881 -35.688,35.6881 -19.7099,0 -35.688,-15.9781 -35.688,-35.6881 0,-19.7099 15.9781,-35.688 35.688,-35.688 19.7099,0 35.688,15.9781 35.688,35.688 z" rx="35.688" transform="translate(1.4179 140.39)" ry="35.688" cy="-1854.9" cx="2903" fill="#fff"/>
      <ellipse id="path2250" d="m 2938.7051,-1854.9092 c 0,19.71 -15.9781,35.6881 -35.688,35.6881 -19.7099,0 -35.688,-15.9781 -35.688,-35.6881 0,-19.7099 15.9781,-35.688 35.688,-35.688 19.7099,0 35.688,15.9781 35.688,35.688 z" rx="35.688" transform="translate(128.57 142.75)" ry="35.688" cy="-1854.9" cx="2903" fill="#fff"/>
     </g>
    </g>
   </g>
  </g>
 </g>
</svg>
