<?xml version="1.0" encoding="UTF-8" standalone="no"?>
<!-- Created with Sodipodi ("http://www.sodipodi.com/") -->
<!-- /Creative Commons Public Domain -->
<!--
<rdf:RDF xmlns="http://web.resource.org/cc/"
    xmlns:dc="http://purl.org/dc/elements/1.1/"
    xmlns:rdf="http://www.w3.org/1999/02/22-rdf-syntax-ns#">
<Work rdf:about="">
   <dc:title>SVG graphic of Seychelles flag</dc:title>
   <dc:rights><Agent>
      <dc:title>Russell Cloran</dc:title>
   </Agent></dc:rights>
   <license rdf:resource="http://web.resource.org/cc/PublicDomain" />
</Work>

<License rdf:about="http://web.resource.org/cc/PublicDomain">
   <permits rdf:resource="http://web.resource.org/cc/Reproduction" />
   <permits rdf:resource="http://web.resource.org/cc/Distribution" />
   <permits rdf:resource="http://web.resource.org/cc/DerivativeWorks" />
</License>

</rdf:RDF>
-->
<svg id="svg548" xmlns:rdf="http://www.w3.org/1999/02/22-rdf-syntax-ns#" xmlns="http://www.w3.org/2000/svg" viewBox="0 0 512 512" version="1" y="0" x="0" xmlns:cc="http://creativecommons.org/ns#" xmlns:dc="http://purl.org/dc/elements/1.1/">
 <metadata id="metadata3043">
  <rdf:RDF>
   <cc:Work rdf:about="">
    <dc:format>image/svg+xml</dc:format>
    <dc:type rdf:resource="http://purl.org/dc/dcmitype/StillImage"/>
   </cc:Work>
  </rdf:RDF>
 </metadata>
 <defs id="defs550">
  <clipPath id="clipPath5206" clipPathUnits="userSpaceOnUse">
   <rect id="rect5208" fill-opacity=".67" height="496.06" width="512" y="-.00014465" x="0"/>
  </clipPath>
 </defs>
 <g id="flag" stroke-width="1pt" clip-path="url(#clipPath5206)" transform="matrix(1 0 0 1.0321 0 .00014930)" fill-rule="evenodd">
  <rect id="rect551" height="496.06" width="992.13" y="-.000132" x="0" fill="#f00"/>
  <path id="path552" transform="matrix(.93333 0 0 .93333 0 -.000015259)" fill="#090" d="m0 531.5 1063-177.16v177.16h-1063z"/>
  <path id="path553" transform="matrix(.93333 0 0 .93333 0 -.000015259)" fill="#fff" d="m0 531.5 1063-354.33v177.17l-1063 177.16z"/>
  <path id="path554" transform="matrix(.93333 0 0 .93333 0 -.000015259)" fill="#009" d="m0 531.5v-531.5h354.33l-354.33 531.5z"/>
  <path id="path555" transform="matrix(.93333 0 0 .93333 0 -.000015259)" fill="#ff0" d="m0 531.5 354.33-531.5h354.33l-708.66 531.5z"/>
 </g>
</svg>
