<?xml version="1.0" encoding="UTF-8" standalone="no"?>
<!-- Created with Sodipodi ("http://www.sodipodi.com/") -->
<svg id="svg378" xmlns:rdf="http://www.w3.org/1999/02/22-rdf-syntax-ns#" xmlns="http://www.w3.org/2000/svg" width="640" version="1" y="0" x="0" xmlns:cc="http://creativecommons.org/ns#" height="480" viewBox="0 0 512 512" xmlns:dc="http://purl.org/dc/elements/1.1/">
 <metadata id="metadata3649">
  <rdf:RDF>
   <cc:Work rdf:about="">
    <dc:format>image/svg+xml</dc:format>
    <dc:type rdf:resource="http://purl.org/dc/dcmitype/StillImage"/>
   </cc:Work>
  </rdf:RDF>
 </metadata>
 <defs id="defs380">
  <clipPath id="clipPath4393" clipPathUnits="userSpaceOnUse">
   <rect id="rect4395" fill-opacity=".67" height="512" width="682.67" y="0" x="-85.333"/>
  </clipPath>
 </defs>
 <g id="flag" stroke-width="1pt" fill-rule="evenodd" clip-path="url(#clipPath4393)">
  <rect id="rect649" height="216.28" width="993.54" y="139.08" x="-226.62" fill="#fff"/>
  <rect id="rect148" transform="scale(-1)" height="172.87" width="989.67" y="-512" x="-765.11" fill="#087bce"/>
  <rect id="rect585" transform="scale(-1)" height="168.1" width="994.15" y="-168.1" x="-767.53" fill="#087bce"/>
  <polygon id="polygon671" points="498.45 365.81 441.12 324.21 511.95 324.28 533.78 256.9 555.61 324.28 626.44 324.23 569.1 365.81 591.04 433.16 591.04 433.16 533.77 391.48 476.5 433.15" fill="#087bce" transform="matrix(.34510 -.0016795 -.0037575 .32718 88.666 141.87)"/>
  <polygon id="polygon637" points="498.45 365.81 441.12 324.21 511.95 324.28 533.78 256.9 555.61 324.28 626.44 324.23 569.1 365.81 591.04 433.16 591.04 433.16 533.77 391.48 476.5 433.15" fill="#087bce" transform="matrix(.34510 -.0016795 -.0037575 .32718 231.61 178.67)"/>
  <polygon id="polygon638" points="498.45 365.81 441.12 324.21 511.95 324.28 533.78 256.9 555.61 324.28 626.44 324.23 569.1 365.81 591.04 433.16 591.04 433.16 533.77 391.48 476.5 433.15" fill="#087bce" transform="matrix(.34510 -.0016795 -.0037575 .32718 231.61 102.24)"/>
  <polygon id="polygon639" points="498.45 365.81 441.12 324.21 511.95 324.28 533.78 256.9 555.61 324.28 626.44 324.23 569.1 365.81 591.04 433.16 591.04 433.16 533.77 391.48 476.5 433.15" fill="#087bce" transform="matrix(.34510 -.0016795 -.0037575 .32718 -84.003 178.67)"/>
  <polygon id="polygon640" points="498.45 365.81 441.12 324.21 511.95 324.28 533.78 256.9 555.61 324.28 626.44 324.23 569.1 365.81 591.04 433.16 591.04 433.16 533.77 391.48 476.5 433.15" fill="#087bce" transform="matrix(.34510 -.0016795 -.0037575 .32718 -84.003 102.24)"/>
 </g>
</svg>
